# xmcd CD database file
#
# Track frame offsets:
#	150
#	24585
#	39332
#	66258
#	93424
#	116998
#	136132
#	157162
#	177514
#	193477
#	215187
#
# Disc length: 3029 seconds
#
# Revision: 0
# Processed by: cddbd v1.5.1PL0 Copyright (c) Steve Scherf et al.
# Submitted via: CDex 1.51
#
DISCID=ac0bd30b
DTITLE=Night Train - Jazz Trio - Night Train - Jazz Trio
DYEAR=1900
DGENRE=Jazz
TTITLE0=That old Feeling
TTITLE1=Please don't talk about me
TTITLE2=Ow
TTITLE3=Nothin' but the blues
TTITLE4=There's no greater love
TTITLE5=Wild Romance
TTITLE6=Satin doll
TTITLE7=Work song
TTITLE8=Take the A-train
TTITLE9=Song for Nicky
TTITLE10=Don't get around much anymore
EXTD=
EXTT0=
EXTT1=
EXTT2=
EXTT3=
EXTT4=
EXTT5=
EXTT6=
EXTT7=
EXTT8=
EXTT9=
EXTT10=
PLAYORDER=
